PathFileType	4	(X/Y/Z)	RBDS04static.trc
DataRate	CameraRate	NumFrames	NumMarkers	Units	OrigDataRate	OrigDataStartFrame	OrigNumFrames
150.000000	150.000000	4	48	mm	150.000000	93	150
Frame#	Time	L.Ankle			L.Ankle.Medial			L.ASIS			L.GTR			L.Heel.Bottom			L.Heel.Lateral			L.Heel.Top			L.HF			L.Iliac.Crest			L.Knee			L.Knee.Medial			L.MT1			L.MT2			L.MT5			L.PSIS			L.Shank.Bottom.Lateral			L.Shank.Bottom.Medial			L.Shank.Top.Lateral			L.Shank.Top.Medial			L.Thigh.Bottom.Lateral			L.Thigh.Bottom.Medial			L.Thigh.Top.Lateral			L.Thigh.Top.Medial			L.TT			R.Ankle			R.Ankle.Medial			R.ASIS			R.GTR			R.Heel.Bottom			R.Heel.Lateral			R.Heel.Top			R.HF			R.Iliac.Crest			R.Knee			R.Knee.Medial			R.MT1			R.MT2			R.MT5			R.PSIS			R.Shank.Bottom.Lateral			R.Shank.Bottom.Medial			R.Shank.Top.Lateral			R.Shank.Top.Medial			R.Thigh.Bottom.Lateral			R.Thigh.Bottom.Medial			R.Thigh.Top.Lateral			R.Thigh.Top.Medial			R.TT			
		X1	Y1	Z1	X2	Y2	Z2	X3	Y3	Z3	X4	Y4	Z4	X5	Y5	Z5	X6	Y6	Z6	X7	Y7	Z7	X8	Y8	Z8	X9	Y9	Z9	X10	Y10	Z10	X11	Y11	Z11	X12	Y12	Z12	X13	Y13	Z13	X14	Y14	Z14	X15	Y15	Z15	X16	Y16	Z16	X17	Y17	Z17	X18	Y18	Z18	X19	Y19	Z19	X20	Y20	Z20	X21	Y21	Z21	X22	Y22	Z22	X23	Y23	Z23	X24	Y24	Z24	X25	Y25	Z25	X26	Y26	Z26	X27	Y27	Z27	X28	Y28	Z28	X29	Y29	Z29	X30	Y30	Z30	X31	Y31	Z31	X32	Y32	Z32	X33	Y33	Z33	X34	Y34	Z34	X35	Y35	Z35	X36	Y36	Z36	X37	Y37	Z37	X38	Y38	Z38	X39	Y39	Z39	X40	Y40	Z40	X41	Y41	Z41	X42	Y42	Z42	X43	Y43	Z43	X44	Y44	Z44	X45	Y45	Z45	X46	Y46	Z46	X47	Y47	Z47	X48	Y48	Z48	

94	0.62	694.094482421875	100.7938537597656	1055.125732421875	715.2542114257813	105.0366821289063	1134.247802734375	837.2572631835938	977.9969482421875	1131.781860351563	746.8739013671875	896.4624633789063	1063.977661132813	629.67138671875	38.8363037109375	1086.58251953125	662.42041015625	58.4211540222168	1046.570922851563	638.5792236328125	85.59708404541016	1087.600463867188	700.6158447265625	451.3690490722656	1050.4072265625	762.1310424804688	1039.637329101563	1086.36669921875	710.885498046875	516.688720703125	1056.7626953125	703.2389526367188	504.9373168945313	1170.876708984375	842.7865600585938	61.38046264648438	1129.283325195313	841.750732421875	65.88205718994141	1081.748046875	816.526123046875	49.64200210571289	1028.262939453125	668.6173706054688	1000.754333496094	1188.870727539063	695.812744140625	184.4672241210938	1047.51171875	652.80615234375	179.4042053222656	1074.386108398438	686.3065185546875	264.2195129394531	1038.497924804688	641.3822631835938	263.4452209472656	1067.547241210938	728.3683471679688	632.4857177734375	1043.143798828125	666.131591796875	634.8071899414063	1081.848754882813	726.9962158203125	743.061767578125	1042.019653320313	671.1085205078125	745.1327514648438	1082.932373046875	750.4269409179688	430.5173034667969	1097.886352539063	692.7208862304688	95.79820251464844	1398.912109375	714.7051391601563	110.9917144775391	1320.511596679688	831.9148559570313	975.3171997070313	1335.564575195313	763.7998657226563	893.50048828125	1400.477416992188	628.41943359375	39.17125701904297	1364.802612304688	660.2720947265625	56.39244079589844	1405.326171875	636.02783203125	84.77149963378906	1364.548583984375	713.3705444335938	450.0631408691406	1415.517578125	759.0712280273438	1029.505004882813	1376.33447265625	711.37646484375	526.7355346679688	1405.342651367188	715.5436401367188	506.8325805664063	1291.535400390625	841.9978637695313	63.36536026000977	1332.843383789063	855.7551879882813	64.65947723388672	1375.344360351563	814.1857299804688	53.01583099365234	1430.348510742188	666.6455078125	1002.299255371094	1274.2353515625	685.8873901367188	179.053955078125	1409.994995117188	648.8173828125	181.64453125	1370.033447265625	676.7053833007813	258.9767456054688	1421.131103515625	642.074462890625	260.6384887695313	1379.58349609375	720.8385620117188	618.5027465820313	1413.731811523438	664.8204956054688	618.756591796875	1362.6181640625	714.3116455078125	728.980712890625	1417.5830078125	663.629150390625	728.622314453125	1368.460571289063	762.43310546875	432.7748107910156	1360.463989257813	
95	0.6266666666666667	694.1012573242188	100.797119140625	1055.110961914063	715.2491455078125	105.0264053344727	1134.23681640625	837.2518310546875	977.9903564453125	1131.782104492188	746.876220703125	896.4680786132813	1063.975708007813	629.663818359375	38.84742736816406	1086.588134765625	662.417236328125	58.43194580078125	1046.568969726563	638.586669921875	85.60049438476563	1087.597412109375	700.6210327148438	451.3601379394531	1050.411376953125	762.1493530273438	1039.633422851563	1086.376708984375	710.8909912109375	516.7002563476563	1056.755493164063	703.2440185546875	504.947265625	1170.876586914063	842.8106689453125	61.37640380859375	1129.26904296875	841.7587890625	65.88059234619141	1081.749877929688	816.53125	49.64212036132813	1028.252685546875	668.618408203125	1000.757141113281	1188.871459960938	695.8158569335938	184.4623565673828	1047.509887695313	652.8132934570313	179.4123992919922	1074.380615234375	686.3153686523438	264.2204284667969	1038.500122070313	641.3890991210938	263.4437561035156	1067.550170898438	728.3721313476563	632.4910888671875	1043.1376953125	666.1355590820313	634.8098754882813	1081.856811523438	727.0007934570313	743.0550537109375	1042.0302734375	671.1060791015625	745.1256103515625	1082.929077148438	750.433349609375	430.5068664550781	1097.890502929688	692.7391967773438	95.80348205566406	1398.902954101563	714.7099609375	111.0063095092773	1320.501708984375	831.91162109375	975.3218383789063	1335.566528320313	763.7965087890625	893.4979248046875	1400.472900390625	628.4307861328125	39.17187118530273	1364.794677734375	660.2775268554688	56.38814544677734	1405.324340820313	636.0274658203125	84.76694488525391	1364.537475585938	713.3612670898438	450.0552673339844	1415.517578125	759.0675659179688	1029.510986328125	1376.326416015625	711.37353515625	526.74951171875	1405.335571289063	715.5374145507813	506.82958984375	1291.531494140625	842.0035400390625	63.36077117919922	1332.840454101563	855.7594604492188	64.65107727050781	1375.336791992188	814.1893920898438	53.02399444580078	1430.350830078125	666.6360473632813	1002.301147460938	1274.234130859375	685.890380859375	179.0582580566406	1409.994873046875	648.826171875	181.6382293701172	1370.03515625	676.6984252929688	258.9757995605469	1421.13134765625	642.0731811523438	260.6323852539063	1379.584594726563	720.8308715820313	618.5008544921875	1413.735107421875	664.82373046875	618.7514038085938	1362.622436523438	714.2998657226563	728.9849853515625	1417.57470703125	663.6218872070313	728.6170654296875	1368.46533203125	762.4271240234375	432.7665100097656	1360.456665039063	
96	0.6333333333333334	694.1056518554688	100.7897186279297	1055.1259765625	715.2643432617188	105.0330047607422	1134.250244140625	837.2489013671875	977.9940795898438	1131.795043945313	746.8803100585938	896.4708862304688	1063.983276367188	629.6737060546875	38.84115982055664	1086.576171875	662.4262084960938	58.42486953735352	1046.567626953125	638.5869140625	85.59693145751953	1087.599365234375	700.632568359375	451.3571472167969	1050.408447265625	762.1660766601563	1039.63134765625	1086.389404296875	710.9056396484375	516.6845703125	1056.770751953125	703.2454833984375	504.9407958984375	1170.87646484375	842.8048706054688	61.37226867675781	1129.275634765625	841.75732421875	65.88798522949219	1081.749145507813	816.534912109375	49.64353561401367	1028.265991210938	668.6175537109375	1000.750610351563	1188.8779296875	695.827880859375	184.4683532714844	1047.50732421875	652.8107299804688	179.4040679931641	1074.38037109375	686.3289794921875	264.2157287597656	1038.4970703125	641.39599609375	263.4393310546875	1067.540283203125	728.3775024414063	632.4814453125	1043.151000976563	666.1432495117188	634.8038330078125	1081.853149414063	727.0054931640625	743.0521850585938	1042.038940429688	671.1077270507813	745.130615234375	1082.936401367188	750.4391479492188	430.5128173828125	1097.891235351563	692.7284545898438	95.80344390869141	1398.902099609375	714.708984375	111.0033416748047	1320.507934570313	831.9099731445313	975.321044921875	1335.57275390625	763.78466796875	893.4998779296875	1400.473876953125	628.428955078125	39.17715454101563	1364.7919921875	660.2750244140625	56.39220428466797	1405.31640625	636.034912109375	84.76689147949219	1364.535766601563	713.3658447265625	450.0578002929688	1415.532592773438	759.0567626953125	1029.521484375	1376.337890625	711.3657836914063	526.7506103515625	1405.335205078125	715.5335083007813	506.8363952636719	1291.530883789063	842.0008544921875	63.36174011230469	1332.844970703125	855.7567138671875	64.6480712890625	1375.334228515625	814.2013549804688	53.01589584350586	1430.345336914063	666.6302490234375	1002.307983398438	1274.234252929688	685.8895263671875	179.0588226318359	1409.99951171875	648.8291015625	181.6455535888672	1370.031372070313	676.7052001953125	258.9775390625	1421.130981445313	642.07275390625	260.6333618164063	1379.57763671875	720.824462890625	618.5072021484375	1413.732666015625	664.8092651367188	618.7506713867188	1362.625122070313	714.2896118164063	728.9803466796875	1417.583618164063	663.61376953125	728.6213989257813	1368.467407226563	762.431640625	432.7634582519531	1360.458251953125	
97	0.64	694.103759765625	100.789924621582	1055.101684570313	715.2581787109375	105.036506652832	1134.245727539063	837.2639770507813	977.9957275390625	1131.802612304688	746.8777465820313	896.4724731445313	1064.001831054688	629.6685791015625	38.84296798706055	1086.577758789063	662.42041015625	58.42630386352539	1046.560424804688	638.5839233398438	85.59896850585938	1087.6025390625	700.6347045898438	451.3648071289063	1050.41015625	762.1795654296875	1039.640869140625	1086.388061523438	710.9124145507813	516.694580078125	1056.758911132813	703.2588500976563	504.9361267089844	1170.868286132813	842.8163452148438	61.37644958496094	1129.266235351563	841.7601318359375	65.88473510742188	1081.749633789063	816.529541015625	49.64567184448242	1028.255004882813	668.61572265625	1000.750854492188	1188.8740234375	695.8221435546875	184.4684753417969	1047.499755859375	652.8191528320313	179.4085235595703	1074.377563476563	686.3275756835938	264.2264709472656	1038.49365234375	641.3941040039063	263.4527587890625	1067.537841796875	728.3834838867188	632.4808959960938	1043.1435546875	666.13623046875	634.8096313476563	1081.855712890625	727.0016479492188	743.0573120117188	1042.036499023438	671.1114501953125	745.1288452148438	1082.934448242188	750.4570922851563	430.5149230957031	1097.894775390625	692.7235107421875	95.80292510986328	1398.906494140625	714.7205810546875	110.9973068237305	1320.505249023438	831.8930053710938	975.318359375	1335.586669921875	763.7662353515625	893.5142211914063	1400.49072265625	628.4262084960938	39.17070388793945	1364.791381835938	660.2705688476563	56.38882064819336	1405.312622070313	636.033935546875	84.77229309082031	1364.538330078125	713.375	450.057373046875	1415.517211914063	759.0486450195313	1029.5283203125	1376.330322265625	711.3598022460938	526.7451782226563	1405.343139648438	715.5410766601563	506.8170166015625	1291.537353515625	842.0048828125	63.35550308227539	1332.84814453125	855.7605590820313	64.65229797363281	1375.331176757813	814.1941528320313	53.01523590087891	1430.348266601563	666.6259155273438	1002.306518554688	1274.236083984375	685.8914794921875	179.0592041015625	1409.992065429688	648.8263549804688	181.6414794921875	1370.027587890625	676.6963500976563	258.9796142578125	1421.136596679688	642.0718383789063	260.6365051269531	1379.585327148438	720.82177734375	618.5074462890625	1413.735229492188	664.810302734375	618.7521362304688	1362.6181640625	714.2785034179688	728.9777221679688	1417.581298828125	663.602294921875	728.6177978515625	1368.466186523438	762.42578125	432.7640380859375	1360.453125	
